<svg width="35" height="35" viewBox="0 0 35 35" fill="none" xmlns="http://www.w3.org/2000/svg">
<path d="M17.5 1.02941C26.5588 1.02941 33.9706 8.44118 33.9706 17.5C33.9706 26.5588 26.5588 33.9706 17.5 33.9706C8.44118 33.9706 1.02941 26.5588 1.02941 17.5C1.02941 8.44118 8.44118 1.02941 17.5 1.02941ZM17.5 0C7.82353 0 0 7.82353 0 17.5C0 27.1765 7.82353 35 17.5 35C27.1765 35 35 27.1765 35 17.5C35 7.82353 27.1765 0 17.5 0Z" fill="#F6F8FF"/>
<path d="M17.5 21.6176C21.103 21.6176 23.8824 18.7353 23.8824 15.2353C23.8824 11.7353 21.103 8.75 17.5 8.75C13.8971 8.75 11.1177 11.6324 11.1177 15.1324C11.1177 18.6324 13.8971 21.6176 17.5 21.6176Z" fill="#F6F8FF" fill-opacity="0.3" stroke="#F6F8FF" stroke-width="1.5" stroke-linecap="round" stroke-linejoin="round"/>
<path d="M6.58826 30.162C7.10296 29.3385 7.72061 28.6179 8.4412 28.0002C10.8088 25.6326 14.103 24.1914 17.5 24.1914C20.8971 24.1914 24.1912 25.5296 26.5588 28.0002C27.1765 28.6179 27.7941 29.3385 28.3088 30.0591" stroke="#F6F8FF" stroke-width="1.5" stroke-linecap="round" stroke-linejoin="round"/>
<path d="M6 30C6.5 29.2 7.1 28.5 7.8 27.8C10.2 25.4 13.5 24 16.9 24C20.3 24 23.6 25.3 26 27.8C26.6 28.4 27.2 29.1 27.7 29.9L27.6 30.5C27.6 30.5 23.1 34.4 16.9 34.4C10.7 34.4 6 30 6 30Z" fill="#F6F8FF" fill-opacity="0.3"/>
</svg>
