<svg width="73" height="29" viewBox="0 0 73 29" fill="none" xmlns="http://www.w3.org/2000/svg">
<path d="M5.09019 17.711H12.1094V20.9097H0.914185V0H5.09019V17.711Z" fill="#F6F8FF"/>
<path d="M23.0229 4.29447C24.6222 4.29447 26.0537 4.63013 27.3174 5.30146C28.6008 5.97278 29.6078 6.95014 30.3383 8.23354C31.0689 9.49721 31.4341 10.9879 31.4341 12.7057C31.4341 14.4235 31.0689 15.9142 30.3383 17.1779C29.6078 18.4416 28.6008 19.4189 27.3174 20.11C26.0537 20.7813 24.6222 21.117 23.0229 21.117C21.4236 21.117 19.9822 20.7813 18.6988 20.11C17.4351 19.4189 16.438 18.4416 15.7075 17.1779C14.9769 15.9142 14.6117 14.4235 14.6117 12.7057C14.6117 10.9879 14.9769 9.49721 15.7075 8.23354C16.438 6.95014 17.4351 5.97278 18.6988 5.30146C19.9822 4.63013 21.4236 4.29447 23.0229 4.29447ZM23.0229 7.90776C21.858 7.90776 20.8707 8.3224 20.0612 9.15167C19.2517 9.96121 18.8469 11.1459 18.8469 12.7057C18.8469 14.2656 19.2517 15.4601 20.0612 16.2894C20.8707 17.0989 21.858 17.5037 23.0229 17.5037C24.1878 17.5037 25.1751 17.0989 25.9846 16.2894C26.7941 15.4601 27.1989 14.2656 27.1989 12.7057C27.1989 11.1459 26.7941 9.96121 25.9846 9.15167C25.1751 8.3224 24.1878 7.90776 23.0229 7.90776Z" fill="#F6F8FF"/>
<path d="M41.6585 4.29447C43.0407 4.29447 44.2254 4.62026 45.2126 5.27184C46.1998 5.92341 46.9008 6.80205 47.3154 7.90776V4.50179H51.4618V20.9689C51.4618 22.4892 51.1558 23.8516 50.5437 25.056C49.9513 26.2802 49.0529 27.2378 47.8485 27.9289C46.6638 28.62 45.2225 28.9655 43.5244 28.9655C41.1551 28.9655 39.2398 28.4028 37.7787 27.2773C36.3176 26.1519 35.4291 24.6217 35.1132 22.6867H39.2299C39.4669 23.516 39.921 24.1577 40.5923 24.6118C41.2834 25.0857 42.162 25.3226 43.2283 25.3226C44.4524 25.3226 45.4397 24.9573 46.19 24.2268C46.9403 23.516 47.3154 22.43 47.3154 20.9689V17.4741C46.9008 18.5798 46.1998 19.4683 45.2126 20.1396C44.2254 20.7912 43.0407 21.117 41.6585 21.117C40.2764 21.117 39.0325 20.7813 37.9268 20.11C36.8211 19.4387 35.9523 18.4712 35.3205 17.2075C34.7084 15.9241 34.4024 14.4235 34.4024 12.7057C34.4024 10.9879 34.7084 9.49721 35.3205 8.23354C35.9523 6.95014 36.8211 5.97278 37.9268 5.30146C39.0325 4.63013 40.2764 4.29447 41.6585 4.29447ZM42.9617 7.93738C41.6585 7.93738 40.6121 8.36189 39.8223 9.21091C39.0325 10.0599 38.6376 11.2249 38.6376 12.7057C38.6376 14.1866 39.0325 15.3515 39.8223 16.2005C40.6121 17.0298 41.6585 17.4445 42.9617 17.4445C44.2254 17.4445 45.262 17.0199 46.0715 16.1709C46.9008 15.3022 47.3154 14.1471 47.3154 12.7057C47.3154 11.2446 46.9008 10.0895 46.0715 9.24053C45.262 8.37176 44.2254 7.93738 42.9617 7.93738Z" fill="#F6F8FF"/>
<path d="M63.6745 4.29447C65.2738 4.29447 66.7053 4.63013 67.969 5.30146C69.2524 5.97278 70.2593 6.95014 70.9899 8.23354C71.7204 9.49721 72.0857 10.9879 72.0857 12.7057C72.0857 14.4235 71.7204 15.9142 70.9899 17.1779C70.2593 18.4416 69.2524 19.4189 67.969 20.11C66.7053 20.7813 65.2738 21.117 63.6745 21.117C62.0752 21.117 60.6338 20.7813 59.3504 20.11C58.0867 19.4189 57.0896 18.4416 56.3591 17.1779C55.6285 15.9142 55.2632 14.4235 55.2632 12.7057C55.2632 10.9879 55.6285 9.49721 56.3591 8.23354C57.0896 6.95014 58.0867 5.97278 59.3504 5.30146C60.6338 4.63013 62.0752 4.29447 63.6745 4.29447ZM63.6745 7.90776C62.5095 7.90776 61.5223 8.3224 60.7128 9.15167C59.9032 9.96121 59.4985 11.1459 59.4985 12.7057C59.4985 14.2656 59.9032 15.4601 60.7128 16.2894C61.5223 17.0989 62.5095 17.5037 63.6745 17.5037C64.8394 17.5037 65.8267 17.0989 66.6362 16.2894C67.4457 15.4601 67.8505 14.2656 67.8505 12.7057C67.8505 11.1459 67.4457 9.96121 66.6362 9.15167C65.8267 8.3224 64.8394 7.90776 63.6745 7.90776Z" fill="#F6F8FF"/>
</svg>
